# xmcd CD database file
#
# Track frame offsets:
#	150
#	16515
#	33073
#	51848
#	70960
#	93043
#	109505
#	133040
#	150973
#	170348
#
# Disc length: 2526 seconds
#
# Revision: 1
# Processed by: cddbd v1.5.2PL0 Copyright (c) Steve Scherf et al.
# Submitted via: CDex 1.51
#
DISCID=6609dc0a
DTITLE=Defintion Of Sound - The Lick
DYEAR=1992
DGENRE=Pop
TTITLE0=Looking Good
TTITLE1=Can I Get Over
TTITLE2=What Are You Under
TTITLE3=Together
TTITLE4=Move Your Body
TTITLE5=She Hangs Out
TTITLE6=Sunshine And Rain
TTITLE7=To Young To Know
TTITLE8=Travelling Man
TTITLE9=Cry
EXTD=YEAR: 1992
EXTT0=
EXTT1=
EXTT2=
EXTT3=
EXTT4=
EXTT5=
EXTT6=
EXTT7=
EXTT8=
EXTT9=
PLAYORDER=
